<?xml version="1.0" encoding="UTF-8" standalone="no"?>
<!-- Created with Inkscape (http://www.inkscape.org/) -->

<svg
   xmlns:dc="http://purl.org/dc/elements/1.1/"
   xmlns:cc="http://creativecommons.org/ns#"
   xmlns:rdf="http://www.w3.org/1999/02/22-rdf-syntax-ns#"
   xmlns:svg="http://www.w3.org/2000/svg"
   xmlns="http://www.w3.org/2000/svg"
   xmlns:sodipodi="http://sodipodi.sourceforge.net/DTD/sodipodi-0.dtd"
   xmlns:inkscape="http://www.inkscape.org/namespaces/inkscape"
   width="20.824724mm"
   height="6.9092431mm"
   viewBox="0 0 20.824724 6.9092431"
   version="1.1"
   id="svg8"
   inkscape:export-filename="/Users/johnparcia/Documents/github-icon.png"
   inkscape:export-xdpi="480"
   inkscape:export-ydpi="480"
   inkscape:version="0.92.2 5c3e80d, 2017-08-06"
   sodipodi:docname="logo-invert.svg">
  <defs
     id="defs2" />
  <sodipodi:namedview
     id="base"
     pagecolor="#ffffff"
     bordercolor="#666666"
     borderopacity="1.0"
     inkscape:pageopacity="0.0"
     inkscape:pageshadow="2"
     inkscape:zoom="2.8"
     inkscape:cx="-47.557316"
     inkscape:cy="13.065188"
     inkscape:document-units="mm"
     inkscape:current-layer="g900"
     showgrid="false"
     fit-margin-top="0"
     fit-margin-left="0"
     fit-margin-right="0"
     fit-margin-bottom="0"
     inkscape:window-width="1280"
     inkscape:window-height="717"
     inkscape:window-x="0"
     inkscape:window-y="1"
     inkscape:window-maximized="1" />
  <metadata
     id="metadata5">
    <rdf:RDF>
      <cc:Work
         rdf:about="">
        <dc:format>image/svg+xml</dc:format>
        <dc:type
           rdf:resource="http://purl.org/dc/dcmitype/StillImage" />
        <dc:title></dc:title>
      </cc:Work>
    </rdf:RDF>
  </metadata>
  <g
     inkscape:label="Layer 1"
     inkscape:groupmode="layer"
     id="layer1"
     transform="translate(-65.493813,-152.61619)">
    <g
       id="g900"
       transform="matrix(0.73684211,0,0,0.73684211,16.49395,44.419235)">
      <path
         d="m 66.499814,150.22538 4.148667,-2.64583 v 1.62983 l -2.667,1.60867 v 0.0423 l 2.667,1.60867 v 1.62983 l -4.148667,-2.64583 z"
         style="font-style:normal;font-variant:normal;font-weight:900;font-stretch:normal;font-size:medium;line-height:125%;font-family:'Source Code Pro';-inkscape-font-specification:'Source Code Pro Heavy';letter-spacing:-0.26458332px;word-spacing:0px;fill:#ffffff;fill-opacity:0.96601939;stroke:none;stroke-width:0.26458332px;stroke-linecap:butt;stroke-linejoin:miter;stroke-opacity:1"
         id="path867"
         inkscape:connector-curvature="0"
         inkscape:export-xdpi="480"
         inkscape:export-ydpi="480" />
      <path
         d="m 72.475263,149.06122 h 1.49225 l 0.137584,1.12183 h 0.04233 q 0.381,-0.65617 0.92075,-0.9525 0.53975,-0.29633 1.143,-0.29633 0.370417,0 0.5715,0.0635 0.211667,0.0529 0.433917,0.14816 l -0.359834,1.524 q -0.243416,-0.0741 -0.4445,-0.10583 -0.1905,-0.0423 -0.47625,-0.0423 -0.455083,0 -0.899583,0.27516 -0.4445,0.26459 -0.740833,0.93134 v 2.62466 H 72.47526 Z"
         style="font-style:normal;font-variant:normal;font-weight:900;font-stretch:normal;font-size:medium;line-height:125%;font-family:'Source Code Pro';-inkscape-font-specification:'Source Code Pro Heavy';letter-spacing:-0.26458332px;word-spacing:0px;fill:#1980ff;fill-opacity:0.99029124;stroke:none;stroke-width:0.26458332px;stroke-linecap:butt;stroke-linejoin:miter;stroke-opacity:1"
         id="path869"
         inkscape:connector-curvature="0"
         inkscape:export-xdpi="480"
         inkscape:export-ydpi="480" />
      <path
         d="m 79.953546,154.75505 v 1.4605 h -1.820333 v -7.15433 h 1.481666 l 0.127,0.48683 h 0.04233 q 0.306916,-0.27517 0.687916,-0.4445 0.391584,-0.16933 0.79375,-0.16933 0.47625,0 0.867834,0.1905 0.391583,0.1905 0.656166,0.53975 0.275167,0.34925 0.423334,0.84666 0.148166,0.49742 0.148166,1.11125 0,0.68792 -0.1905,1.21709 -0.1905,0.52916 -0.508,0.89958 -0.306916,0.35983 -0.719666,0.55033 -0.402167,0.1905 -0.836084,0.1905 -0.338666,0 -0.645583,-0.13758 -0.306917,-0.13758 -0.5715,-0.39158 z m 0,-2.01083 q 0.169333,0.14816 0.34925,0.20108 0.1905,0.0529 0.370417,0.0529 0.169333,0 0.3175,-0.0635 0.148166,-0.0741 0.254,-0.23284 0.116416,-0.15875 0.179916,-0.41275 0.07408,-0.26458 0.07408,-0.64558 0,-0.65617 -0.201084,-0.94192 -0.1905,-0.28575 -0.582083,-0.28575 -0.211667,0 -0.391583,0.0847 -0.179917,0.0847 -0.370417,0.29633 z"
         style="font-style:normal;font-variant:normal;font-weight:900;font-stretch:normal;font-size:medium;line-height:125%;font-family:'Source Code Pro';-inkscape-font-specification:'Source Code Pro Heavy';letter-spacing:-0.26458332px;word-spacing:0px;fill:#1980ff;fill-opacity:0.99029124;stroke:none;stroke-width:0.26458332px;stroke-linecap:butt;stroke-linejoin:miter;stroke-opacity:1"
         id="path871"
         inkscape:connector-curvature="0"
         inkscape:export-xdpi="480"
         inkscape:export-ydpi="480" />
      <path
         d="m 85.71733,156.04622 h -1.50284 l 3.4925,-9.2075 h 1.50284 z"
         style="font-style:normal;font-variant:normal;font-weight:900;font-stretch:normal;font-size:medium;line-height:125%;font-family:'Source Code Pro';-inkscape-font-specification:'Source Code Pro Heavy';letter-spacing:-0.26458332px;word-spacing:0px;fill:#ffffff;fill-opacity:0.96601939;stroke:none;stroke-width:0.26458332px;stroke-linecap:butt;stroke-linejoin:miter;stroke-opacity:1"
         id="path873"
         inkscape:connector-curvature="0"
         inkscape:export-xdpi="480"
         inkscape:export-ydpi="480" />
      <path
         d="m 94.76194,151.45305 -4.14866,2.64583 v -1.62983 l 2.667,-1.60867 v -0.0423 l -2.667,-1.60867 v -1.62983 l 4.14866,2.64583 z"
         style="font-style:normal;font-variant:normal;font-weight:900;font-stretch:normal;font-size:medium;line-height:125%;font-family:'Source Code Pro';-inkscape-font-specification:'Source Code Pro Heavy';letter-spacing:-0.26458332px;word-spacing:0px;fill:#ffffff;fill-opacity:0.96601939;stroke:none;stroke-width:0.26458332px;stroke-linecap:butt;stroke-linejoin:miter;stroke-opacity:1"
         id="path875"
         inkscape:connector-curvature="0"
         inkscape:export-xdpi="480"
         inkscape:export-ydpi="480" />
    </g>
  </g>
</svg>
